name Walk6.mot
datacolumns 19
datarows 27
range 1.19500000 1.22100000
endheader

                time	   L_ground_force_vx	   L_ground_force_vy	   L_ground_force_vz	   L_ground_force_px	   L_ground_force_py	   L_ground_force_pz	   R_ground_force_vx	   R_ground_force_vy	   R_ground_force_vz	   R_ground_force_px	   R_ground_force_py	   R_ground_force_pz	   L_ground_torque_x	   L_ground_torque_y	   L_ground_torque_z	   R_ground_torque_x	   R_ground_torque_y	   R_ground_torque_z	
          1.19500000	         -3.25702677	         60.87756895	         -5.39992159	          0.00090157	          0.00000000	          0.00093033	         -0.00000000	          0.00000000	         -0.00000000	          0.00000000	          0.00000000	          0.00000000	          0.00000000	          0.01733636	          0.00000000	          0.00000000	          0.00000000	          0.00000000	
          1.19600000	         -3.79178080	         66.11718264	         -5.74161799	         -0.01915722	          0.00000000	         -0.00085922	         -0.00000000	          0.00000000	         -0.00000000	          0.00000000	          0.00000000	          0.00000000	          0.00000000	          0.01860978	          0.00000000	          0.00000000	          0.00000000	          0.00000000	
          1.19700000	         -4.34737565	         71.51741913	         -6.09036664	         -0.03915678	          0.00000000	         -0.00264583	         -0.00000000	          0.00000000	         -0.00000000	          0.00000000	          0.00000000	          0.00000000	          0.00000000	          0.02008162	          0.00000000	          0.00000000	          0.00000000	          0.00000000	
          1.19800000	         -4.92373429	         77.07203479	         -6.44540358	         -0.05904827	          0.00000000	         -0.00442536	         -0.00000000	          0.00000000	         -0.00000000	          0.00000000	          0.00000000	          0.00000000	          0.00000000	          0.02176090	          0.00000000	          0.00000000	          0.00000000	          0.00000000	
          1.19900000	         -5.52071168	         82.77366871	         -6.80586978	         -0.07878226	          0.00000000	         -0.00619365	         -0.00000000	          0.00000000	         -0.00000000	          0.00000000	          0.00000000	          0.00000000	          0.00000000	          0.02365633	          0.00000000	          0.00000000	          0.00000000	          0.00000000	
          1.20000000	         -6.13808575	         88.61375604	         -7.17080557	         -0.09830837	          0.00000000	         -0.00794646	         -0.00000000	          0.00000000	         -0.00000000	          0.00000000	          0.00000000	         -0.00000000	          0.00000000	          0.02577626	          0.00000000	          0.00000000	          0.00000000	          0.00000000	
          1.20100000	         -6.77555151	         94.58245259	         -7.53914530	         -0.11757549	          0.00000000	         -0.00967951	         -0.00000000	          0.00000000	         -0.00000000	         -0.00000000	          0.00000000	         -0.00000000	          0.00000000	          0.02812866	          0.00000000	          0.00000000	          0.00000000	          0.00000000	
          1.20200000	         -7.43272649	        100.66860888	         -7.90971286	         -0.13653328	          0.00000000	         -0.01138860	         -0.00000000	          0.00000000	         -0.00000000	         -0.00000000	          0.00000000	         -0.00000000	          0.00000000	          0.03072083	          0.00000000	          0.00000000	          0.00000000	          0.00000000	
          1.20300000	         -8.10917004	        106.85981780	         -8.28121887	         -0.15513476	          0.00000000	         -0.01306982	         -0.00000000	          0.00000000	         -0.00000000	         -0.00000000	          0.00000000	         -0.00000000	          0.00000000	          0.03355916	          0.00000000	          0.00000000	          0.00000000	          0.00000000	
          1.20400000	         -8.80440722	        113.14252144	         -8.65225930	         -0.17333781	          0.00000000	         -0.01471975	         -0.00000000	          0.00000000	         -0.00000000	         -0.00000000	          0.00000000	         -0.00000000	          0.00000000	          0.03664870	          0.00000000	          0.00000000	          0.00000000	          0.00000000	
          1.20500000	         -9.51795157	        119.50217011	         -9.02131552	         -0.19110539	          0.00000000	         -0.01633540	         -0.00000000	          0.00000000	         -0.00000000	         -0.00000000	          0.00000000	         -0.00000000	          0.00000000	          0.03999315	          0.00000000	          0.00000000	          0.00000000	          0.00000000	
          1.20600000	        -10.24932795	        125.92345029	         -9.38675641	         -0.20840527	          0.00000000	         -0.01791424	         -0.00000000	         -0.00000000	         -0.00000000	         -0.00000000	          0.00000000	         -0.00000000	          0.00000000	          0.04359496	          0.00000000	          0.00000000	          0.00000000	          0.00000000	
          1.20700000	        -10.99809506	        132.39059127	         -9.74684298	         -0.22520968	          0.00000000	         -0.01945409	         -0.00000000	         -0.00000000	         -0.00000000	         -0.00000000	          0.00000000	         -0.00000000	          0.00000000	          0.04745574	          0.00000000	          0.00000000	          0.00000000	          0.00000000	
          1.20800000	        -11.76386416	        138.88774081	        -10.09973664	         -0.24149509	          0.00000000	         -0.02095318	         -0.00000000	         -0.00000000	         -0.00000000	         -0.00000000	          0.00000000	         -0.00000000	          0.00000000	          0.05157657	          0.00000000	          0.00000000	          0.00000000	          0.00000000	
          1.20900000	        -12.54631028	        145.39938299	        -10.44351187	         -0.25724189	          0.00000000	         -0.02241006	         -0.00000000	         -0.00000000	         -0.00000000	         -0.00000000	          0.00000000	         -0.00000000	          0.00000000	          0.05595841	          0.00000000	          0.00000000	          0.00000000	          0.00000000	
          1.21000000	        -13.34517313	        151.91075648	        -10.77617401	         -0.27243417	          0.00000000	         -0.02382358	         -0.00000000	         -0.00000000	         -0.00000000	         -0.00000000	          0.00000000	         -0.00000000	          0.00000000	          0.06060221	          0.00000000	          0.00000000	          0.00000000	          0.00000000	
          1.21100000	        -14.16024720	        158.40822663	        -11.09568206	         -0.28705944	          0.00000000	         -0.02519290	         -0.00000000	         -0.00000000	         -0.00000000	         -0.00000000	          0.00000000	         -0.00000000	          0.00000000	          0.06550877	          0.00000000	          0.00000000	          0.00000000	          0.00000000	
          1.21200000	        -14.99136295	        164.87957052	        -11.39997555	         -0.30110838	          0.00000000	         -0.02651745	         -0.00000000	         -0.00000000	         -0.00000000	         -0.00000000	          0.00000000	         -0.00000000	          0.00000000	          0.07067849	          0.00000000	          0.00000000	          0.00000000	          0.00000000	
          1.21300000	        -15.83836302	        171.31415007	        -11.68700395	         -0.31457461	          0.00000000	         -0.02779689	         -0.00000000	         -0.00000000	         -0.00000000	         -0.00000000	          0.00000000	         -0.00000000	          0.00000000	          0.07611110	          0.00000000	          0.00000000	          0.00000000	          0.00000000	
          1.21400000	        -16.70107749	        177.70296675	        -11.95475644	         -0.32745449	          0.00000000	         -0.02903114	         -0.00000000	         -0.00000001	         -0.00000000	         -0.00000000	          0.00000000	         -0.00000000	          0.00000000	          0.08180543	          0.00000000	          0.00000000	          0.00000000	          0.00000000	
          1.21500000	        -17.57930176	        184.03860855	        -12.20129018	         -0.33974688	          0.00000000	         -0.03022030	         -0.00000000	         -0.00000001	         -0.00000000	         -0.00000000	          0.00000000	         -0.00000000	          0.00000000	          0.08775929	          0.00000000	          0.00000000	          0.00000000	          0.00000000	
          1.21600000	        -18.47277929	        190.31511204	        -12.42475523	         -0.35145293	          0.00000000	         -0.03136467	         -0.00000000	         -0.00000001	         -0.00000000	         -0.00000000	          0.00000000	         -0.00000000	          0.00000000	          0.09396951	          0.00000000	          0.00000000	         -0.00000000	          0.00000000	
          1.21700000	        -19.38118963	        196.52776841	        -12.62341517	         -0.36257592	          0.00000000	         -0.03246471	         -0.00000000	         -0.00000001	         -0.00000000	         -0.00000000	          0.00000000	         -0.00000000	          0.00000000	          0.10043198	          0.00000000	          0.00000000	         -0.00000000	          0.00000000	
          1.21800000	        -20.30414142	        202.67290345	        -12.79566275	         -0.37312102	          0.00000000	         -0.03352103	         -0.00000000	         -0.00000001	         -0.00000000	         -0.00000000	          0.00000000	         -0.00000000	          0.00000000	          0.10714177	          0.00000000	          0.00000000	         -0.00000000	          0.00000000	
          1.21900000	        -21.24116915	        208.74765792	        -12.94003124	         -0.38309517	          0.00000000	         -0.03453437	         -0.00000000	         -0.00000001	         -0.00000000	         -0.00000000	          0.00000000	         -0.00000000	          0.00000000	          0.11409313	          0.00000000	          0.00000000	         -0.00000000	          0.00000000	
          1.22000000	        -22.19173208	        214.74978846	        -13.05520204	         -0.39250686	          0.00000000	         -0.03550555	         -0.00000000	         -0.00000001	         -0.00000000	         -0.00000000	          0.00000000	         -0.00000000	          0.00000000	          0.12127955	          0.00000000	          0.00000000	         -0.00000000	          0.00000000	
          1.22100000	        -23.15521406	        220.67750133	        -13.14000990	         -0.40136599	          0.00000000	         -0.03643551	          0.00000000	         -0.00000001	         -0.00000000	         -0.00000000	          0.00000000	         -0.00000000	          0.00000000	          0.12869371	          0.00000000	          0.00000000	         -0.00000000	          0.00000000	
